<?xml version="1.0" encoding="UTF-8" standalone="no"?>
<!-- Created with Inkscape (http://www.inkscape.org/) -->

<svg
   version="1.1"
   id="svg1"
   width="450.04224"
   height="469.96243"
   viewBox="0 0 450.04223 469.96243"
   sodipodi:docname="huiro-logo.svg"
   inkscape:version="1.4.2 (1:1.4.2+202505120737+ebf0e940d0)"
   inkscape:export-filename="huiro-logo.png"
   inkscape:export-xdpi="170.65065"
   inkscape:export-ydpi="170.65065"
   inkscape:export-batch-path="/home/mauricio/Documents/huirodev"
   inkscape:export-batch-name="huiro-logo"
   xmlns:inkscape="http://www.inkscape.org/namespaces/inkscape"
   xmlns:sodipodi="http://sodipodi.sourceforge.net/DTD/sodipodi-0.dtd"
   xmlns="http://www.w3.org/2000/svg"
   xmlns:svg="http://www.w3.org/2000/svg">
  <defs
     id="defs1" />
  <sodipodi:namedview
     id="namedview1"
     pagecolor="#ffffff"
     bordercolor="#000000"
     borderopacity="0.25"
     inkscape:showpageshadow="2"
     inkscape:pageopacity="0.0"
     inkscape:pagecheckerboard="0"
     inkscape:deskcolor="#d1d1d1"
     inkscape:zoom="0.57211195"
     inkscape:cx="151.19419"
     inkscape:cy="539.23013"
     inkscape:window-width="1920"
     inkscape:window-height="1008"
     inkscape:window-x="0"
     inkscape:window-y="0"
     inkscape:window-maximized="1"
     inkscape:current-layer="g1" />
  <g
     inkscape:groupmode="layer"
     inkscape:label="Image"
     id="g1"
     transform="translate(-106.09393,-122.70165)">
    <g
       id="g2"
       transform="matrix(0.82504264,0,0,0.81683778,57.931012,60.539322)"
       style="fill:#ba9f33;fill-opacity:1">
      <path
         id="rect1"
         style="fill:#ba9f33;fill-opacity:1;stroke:none;stroke-width:1.20776;stroke-linecap:round;stroke-miterlimit:3;stroke-dasharray:none;stroke-opacity:1"
         d="m 199.83418,156.96329 c 0.006,0.009 0.0131,0.0181 0.0199,0.0271 0.79792,1.05622 0.91099,1.57836 0.25649,1.1856 l -1.17135,-0.70252 -1.0431,3.87743 c -1.03624,3.84826 -3.22013,6.88276 -4.95332,6.88276 -0.49682,0 -0.90345,0.71346 -0.90345,1.58604 v 1.58603 l 3.64802,-0.58284 c 2.02624,-0.32442 4.42221,-1.53246 5.38936,-2.71606 l 1.74136,-2.13037 1.02457,1.02458 1.02458,1.02458 -1.50195,2.29282 c -0.82627,1.26105 -1.42899,2.73107 -1.33809,3.26611 0.0909,0.53505 -2.00985,2.01313 -4.66831,3.28606 l -4.83361,2.3142 2.2686,1.03171 2.26862,1.0317 1.98075,-1.2369 1.98075,-1.2369 0.92055,0.92054 c 0.50622,0.50622 1.06681,3.61657 1.24545,6.9127 0.32003,5.90468 2.00118,9.72091 3.58532,8.13677 0.44553,-0.44553 0.33574,-2.32419 -0.24368,-4.17526 -0.57943,-1.85106 -1.12278,-5.06219 -1.20698,-7.135 l -0.15247,-3.76912 2.40825,-1.89384 c 2.92161,-2.29809 3.59883,-0.98382 1.54186,2.99394 -0.83506,1.61482 -1.51764,3.83385 -1.51764,4.93051 v 1.99357 h 1.81403 c 0.99794,0 2.92746,-0.87505 4.28784,-1.94512 3.37777,-2.65695 3.26265,-2.8595 3.19771,5.59314 l -0.0585,7.53969 h -1.4592 c -0.82447,0 -2.0236,1.6465 -2.75738,3.78481 l -1.29961,3.78481 2.20591,4.28926 2.20733,4.28926 -1.28821,3.59956 c -0.70827,1.97973 -1.77352,3.96125 -2.36692,4.40326 l -1.07873,0.80369 1.21553,0.49307 c 0.6688,0.27136 1.21694,1.07783 1.21694,1.79122 0,0.71339 -0.54814,1.49755 -1.21694,1.74278 l -1.21553,0.44603 1.21553,1.2882 c 1.96147,2.07914 1.40808,3.81901 -1.21553,3.81901 -1.33761,0 -2.43248,-0.42287 -2.43248,-0.93908 0,-0.51622 -0.83208,-1.38487 -1.84965,-1.92945 l -1.84966,-0.98896 0.40185,2.17171 c 0.22092,1.19457 0.14134,1.62498 -0.1767,0.95618 -1.00974,-2.12337 -2.34885,-1.31278 -2.13323,1.29248 l 0.20805,2.51085 2.70038,-0.54007 2.69896,-0.54008 v 1.28535 c 0,2.33727 -3.05236,7.45263 -4.07124,6.82292 l -1.00035,-0.61703 1.31955,-0.83648 1.32098,-0.83647 -1.94655,-0.0456 -1.94514,-0.047 1.88813,-1.42785 1.88814,-1.42786 h -2.13038 -2.13181 l -0.0769,-2.67473 c -0.0422,-1.47139 -0.29729,-2.12801 -0.56716,-1.45921 -1.04346,2.58597 -2.09324,1.05535 -1.26256,-1.84109 0.48219,-1.6813 0.64555,-3.43282 0.36196,-3.89169 -0.28359,-0.45886 0.0345,-0.83363 0.70822,-0.83363 h 1.22551 l -1.12576,-1.12717 -1.12717,-1.12576 -1.37513,1.14143 -1.37656,1.14285 -1.23405,-2.98111 c -1.13991,-2.75197 -6.79726,-6.92551 -6.79726,-5.01458 0,0.46291 -1.05579,1.32262 -2.34698,1.91093 -1.2912,0.58831 -2.63399,1.97246 -2.98397,3.07516 l -0.63697,2.00498 h -2.36693 -2.36551 v 1.4592 c 0,0.80256 0.36939,1.45921 0.82224,1.45921 1.45839,0 6.71702,-2.91434 7.95864,-4.41039 l 1.20554,-1.45065 1.32953,1.10438 1.32953,1.10294 v -1.09155 c 0,-0.60055 0.43824,-1.09155 0.97328,-1.09155 0.53505,0 0.97327,0.65664 0.97327,1.45921 0,0.80255 0.54673,1.46869 1.21554,1.48057 1.50312,0.0267 6.47887,3.81752 5.05021,3.84751 -0.56653,0.0119 -1.87982,-0.62092 -2.9184,-1.40648 -2.04608,-1.54756 -4.75369,-2.00575 -3.92446,-0.66405 0.28083,0.45441 -0.53264,1.38428 -1.8069,2.06626 -1.27429,0.68197 -2.53195,2.0614 -2.79444,3.06518 l -0.47596,1.82543 -3.7392,0.0314 c -3.21421,0.0266 -9.15717,2.71318 -6.60062,2.98395 0.50355,0.0533 -0.1786,0.448 -1.5162,0.87638 l -2.43248,0.77805 2.1888,0.0969 c 1.20385,0.0533 2.1888,0.53514 2.1888,1.07019 0,0.53503 0.65665,0.97327 1.45921,0.97327 0.80256,0 1.4592,-0.82228 1.4592,-1.82686 0,-1.00456 0.7042,-2.41091 1.56466,-3.12503 l 1.56465,-1.29817 1.39651,1.90807 c 1.57048,2.14546 1.00568,5.86442 -1.27538,8.39612 -0.80388,0.8922 -1.31675,2.57928 -1.14,3.75062 l 0.32205,2.13038 2.8956,-2.69469 2.89561,-2.69325 0.1653,-5.37511 0.16672,-5.37512 1.74421,-1.2768 c 1.8799,-1.37463 5.33866,-1.7409 5.14996,-0.54578 -0.30765,1.94842 0.23858,3.16066 1.42358,3.16066 0.71963,0 2.10104,0.87647 3.06945,1.94655 l 1.75988,1.94514 h -1.60882 c -0.88548,0 -1.61026,-0.39146 -1.61026,-0.86926 0,-1.54489 -3.22645,-2.15863 -4.52438,-0.86069 l -1.26113,1.26112 1.42216,5.34091 c 0.78182,2.93801 1.42698,7.15475 1.43354,9.3694 l 0.0114,4.02564 -1.86247,2.2971 c -2.41783,2.98233 -3.08235,2.16513 -3.22194,-3.96293 -0.14509,-6.36947 -1.40239,-7.26398 -2.2515,-1.60171 l -0.64981,4.33629 -2.81723,0.98183 c -1.54931,0.54009 -2.84805,0.67697 -2.88563,0.30352 -0.0376,-0.37345 -0.48271,0.19674 -0.99038,1.26683 l -0.92339,1.94513 0.50159,-3.26469 0.50018,-3.26326 -1.45493,0.5586 c -1.61753,0.62071 -2.01396,-0.86646 -0.48308,-1.8126 1.4758,-0.91208 1.16344,-4.37761 -0.39473,-4.37761 h -1.368 l 0.49021,2.18881 0.49019,2.1888 -2.0349,-2.91841 c -1.11863,-1.60512 -2.03567,-3.46513 -2.03917,-4.13393 -0.007,-1.3813 -2.76656,-1.59622 -4.7068,-0.36623 l -1.2939,0.82081 2.99679,0.59849 c 2.73711,0.54742 4.44993,3.56679 2.02351,3.56679 -1.76018,0 -1.01385,1.70764 0.97327,2.22728 2.82001,0.73746 2.38586,2.4482 -0.72961,2.87423 l -2.67473,0.3648 1.94513,0.74243 c 5.67671,2.1643 6.6356,3.9307 2.71749,5.00604 l -2.71749,0.74527 3.57391,0.90916 c 1.96589,0.49977 3.81276,1.52955 4.10401,2.28856 l 0.53011,1.38082 h -2.40114 c -3.48942,0 -2.94184,1.45355 1.00463,2.66476 l 3.40718,1.04453 0.72818,-1.22693 c 0.40005,-0.67475 1.76765,-1.77265 3.03953,-2.44104 l 2.31278,-1.21552 0.83363,1.3167 c 1.92868,3.04368 -0.0343,5.82706 -2.60491,3.69361 l -1.43925,-1.19415 0.61275,1.59742 c 0.33701,0.87824 1.11269,1.60296 1.72426,1.61026 0.61155,0.007 2.06055,0.26741 3.2205,0.57856 l 2.10901,0.56572 0.32348,-2.2572 0.32347,-2.25863 4.34341,-0.73816 4.34341,-0.73816 0.99323,0.99181 0.9918,0.99323 -1.51477,2.64053 -1.51479,2.64053 -2.11898,-0.23085 c -4.57743,-0.50058 -1.59999,3.00193 3.47417,4.08691 2.94963,0.6307 4.68928,-0.75254 2.052,-1.63163 -0.65979,-0.21993 -0.09,-1.46918 1.40505,-3.08228 l 2.5137,-2.71321 2.22729,0.70823 2.2287,0.70681 -2.28428,0.84502 -2.28428,0.84503 1.07588,1.29532 c 0.59147,0.71268 0.75205,1.61916 0.35625,2.01496 -0.39579,0.3958 0.11074,1.3269 1.12575,2.0691 1.01502,0.74221 1.88949,2.56758 1.9437,4.05556 l 0.0983,2.70465 1.76985,-0.14534 1.76843,-0.14678 -0.52297,1.3623 c -0.62517,1.62916 -0.11455,1.70066 2.42677,0.34059 1.0499,-0.5619 1.7071,-1.34826 1.46064,-1.74706 -0.74745,-1.2094 3.63721,-0.67273 6.20873,0.75953 l 2.40969,1.34235 -1.92375,0.75098 -1.92376,0.75239 1.70288,0.0684 c 0.93631,0.0376 1.70145,0.47545 1.70145,0.97328 0,0.49783 0.76656,1.09556 1.70288,1.3281 0.2926,0.0727 0.45277,0.1281 0.48736,0.16246 7.3e-4,0.002 0.002,0.003 0.003,0.005 l 0.002,0.002 0.002,0.002 v 0.002 0.002 0.002 0.002 0.002 l -0.002,0.002 v 0.002 l -0.002,0.002 -0.002,0.002 c -0.0519,0.0478 -0.56543,0.0197 -1.46205,-0.0912 -2.89973,-0.3586 -3.37007,0.43807 -1.4592,2.47095 l 1.21694,1.29391 -2.43247,-1.52048 -2.43249,-1.52047 -2.1888,1.79265 c -1.20385,0.98617 -2.17446,2.16133 -2.15746,2.6106 0.0714,1.88587 2.87557,4.34672 5.46061,4.79228 6.41129,1.10505 8.99099,3.57925 5.03882,4.83361 l -2.01781,0.64126 -0.85215,-1.32098 -0.85215,-1.31955 0.24368,4.60419 c 0.13663,2.58018 0.77924,4.81276 1.46062,5.07728 l 1.21554,0.47167 v -2.43297 c 0,-3.36187 2.03246,-3.82204 6.44101,-1.4592 l 3.74491,2.00783 h -1.98931 c -1.09365,0 -2.79133,0.5872 -3.77341,1.3053 l -1.78553,1.30531 2.07908,1.45635 c 1.14394,0.80124 1.7681,1.76876 1.38653,2.15033 -0.38157,0.3816 0.0589,0.40576 0.97898,0.0527 0.92002,-0.35305 1.67295,-0.9837 1.67295,-1.40077 0,-0.41708 1.31328,-0.95003 2.91841,-1.18561 1.60512,-0.23558 2.91841,-0.0676 2.91841,0.37478 0,0.44236 -0.54673,0.80718 -1.21553,0.81083 -0.66881,0.004 -2.53023,0.91713 -4.13536,2.0292 l -2.9184,2.02208 3.89167,-0.5472 c 2.15842,-0.30296 3.10179,-0.21355 2.11756,0.1995 -2.99236,1.25575 -1.86316,2.50348 2.46668,2.72603 2.26453,0.1164 4.27559,0.68575 4.46881,1.2654 0.19322,0.57968 1.08048,1.07204 1.97221,1.09298 0.89174,0.021 0.19845,0.65639 -1.54043,1.41218 -4.789,2.0815 -3.86968,3.41288 2.35553,3.41288 h 5.51761 l 1.81118,1.64019 1.81118,1.63875 -2.70751,2.2401 -2.7075,2.23868 5.83681,-0.49732 5.83682,-0.49875 -2.35411,1.02742 c -3.54044,1.54369 -1.43877,2.6306 6.58779,3.40861 l 7.15352,0.69397 -0.59992,-1.88813 -0.5985,-1.88812 3.06375,0.4503 3.06518,0.4503 -1.6131,0.90202 c -0.88709,0.49645 -1.31762,1.38169 -0.95619,1.96651 0.37944,0.61394 0.21017,0.78633 -0.40042,0.40898 -1.40776,-0.87006 -7.51119,2.59695 -7.51119,4.26646 0,1.49993 5.83146,3.29366 8.00139,2.46098 0.79654,-0.30566 1.19261,-1.20319 0.88494,-2.00498 l -0.55718,-1.45065 h 1.9494 1.94941 l -0.99608,1.86105 c -0.54773,1.02345 -1.54808,2.04574 -2.223,2.27288 l -1.22693,0.41325 1.33523,1.61738 c 0.2735,0.33133 0.54808,0.61318 0.81367,0.84217 l 0.60421,-1.57604 c 0.35844,-0.9341 0.65122,-1.8824 0.65122,-2.10616 0,-0.22376 1.04743,-0.40612 2.32703,-0.40612 h 2.32703 l 0.7467,2.67472 0.74813,2.67616 0.38332,-1.60455 c 0.4133,-1.73029 5.84079,-3.1917 8.3206,-2.24011 1.47581,0.56633 1.80516,1.17598 3.58389,6.62342 l 0.90629,2.77876 1.37512,3.7677 c 2.20128,8.96984 3.87648,14.93224 5.19014,17.14965 1.31366,2.21739 4.32964,6.43422 7.32827,8.97795 2.99863,2.54373 10.55047,6.528 16.80389,8.92322 10.11079,3.87268 25.39111,13.64408 30.64755,19.59949 1.84232,2.08731 5.91174,5.08834 9.04307,6.66902 l 5.69289,2.87423 2.84288,4.48164 c 1.56337,2.46518 3.60203,6.71781 4.53009,9.4492 l 1.6872,4.96613 0.037,7.78194 c 0.0435,9.24567 -1.27761,13.49987 -5.68862,18.31557 l -3.27323,3.57249 h -2.38974 -2.38972 l -6.03775,-6.28711 -6.03916,-6.28854 -3.29888,-7.1407 c -1.81441,-3.92704 -3.57088,-9.52333 -3.90452,-12.43743 -1.15751,-10.1103 -2.73036,-14.92357 -7.42996,-22.73736 -2.59823,-4.31996 -4.72601,-7.30647 -4.72674,-6.63766 -7.3e-4,0.6688 -0.43965,1.21553 -0.97469,1.21553 -0.53505,0 -0.97936,-0.76656 -0.98753,-1.70288 l -0.0142,-1.70146 -0.94335,1.45921 -0.94335,1.4592 -0.0142,-1.64303 -0.0157,-1.64302 -4.61986,-0.73815 c -2.54145,-0.40563 -8.02857,-0.72758 -12.19233,-0.71678 l -7.56962,0.0186 -1.51051,2.15746 -1.5105,2.15604 -1.8639,-0.59138 -1.86248,-0.58995 -0.006,1.28107 c -0.003,0.70485 -0.99543,2.51977 -2.20733,4.03419 l -2.20306,2.75453 -1.25971,-3.48414 c -0.69272,-1.91568 -1.67246,-3.48271 -2.1774,-3.48271 -0.55462,0 -0.52992,0.77129 0.0626,1.94655 0.53958,1.07009 1.41864,2.81463 1.95369,3.87745 0.53503,1.06282 0.97327,4.11063 0.97327,6.77304 0,16.24195 10.79014,26.53639 34.58056,32.99025 5.82901,1.5813 12.61743,6.42395 21.36935,15.24469 4.2885,4.32222 9.54164,8.70949 11.67363,9.74987 l 3.87743,1.89241 2.49661,5.0046 h 15.62659 c -1.79201,-4.2235 -1.22173,-6.56522 3.44566,-16.54999 l 4.54433,-9.72422 0.39901,-9.79404 0.39757,-9.79405 -2.60776,-8.2693 c -1.434,-4.54785 -2.82191,-10.07477 -3.08514,-12.2821 l -0.47879,-4.01281 2.99108,-6.81436 c 5.99124,-13.6505 7.27851,-25.70166 4.33771,-40.60834 -0.84442,-4.28033 -1.73148,-9.53346 -1.97077,-11.67363 l -0.43463,-3.89168 4.52581,-9.24115 c 8.12823,-16.59465 10.05725,-24.58637 11.04948,-45.77681 l 0.75382,-16.10539 3.75915,-7.24186 c 7.90574,-15.23253 10.46971,-21.14011 15.13925,-34.88552 5.45729,-16.06428 7.0252,-19.77337 10.10897,-23.9144 2.21136,-2.9695 17.45409,-28.125 19.76907,-32.62546 0.69853,-1.35796 3.98174,-5.62738 7.29602,-9.48624 12.24983,-14.26263 19.33529,-24.05799 20.97748,-28.986 h -8.79513 c -0.003,0.0276 -0.006,0.0549 -0.008,0.0827 -0.17114,1.60512 -0.74887,3.45093 -1.28392,4.10116 -0.53504,0.65024 -1.49375,1.8066 -2.13039,2.57071 -0.63661,0.76412 -0.89167,1.6548 -0.56715,1.97933 0.32454,0.32454 -1.03038,0.59137 -3.01102,0.59137 h -3.60099 l 1.04167,-1.94655 c 0.5727,-1.07009 1.43362,-1.94513 1.91378,-1.94513 0.48016,0 1.16819,-0.9308 1.52904,-2.06768 l 0.6555,-2.06626 -1.29105,-0.79943 c -0.23935,-0.14791 -0.42885,-0.3209 -0.56146,-0.50017 h -15.39859 c 0.31501,1.63362 0.50588,3.15261 0.50588,4.23084 v 4.32916 l -1.5675,-0.60135 -1.5675,-0.60136 0.6669,2.68614 c 0.3666,1.4774 1.07202,2.83125 1.5675,3.00961 1.33786,0.48155 1.09003,4.31791 -0.42038,6.51226 -0.72644,1.05537 -1.86219,3.5828 -2.52368,5.61594 -0.66148,2.03311 -2.26804,4.84693 -3.57106,6.25291 -1.30301,1.40599 -4.83276,7.29741 -7.84321,13.09151 -3.01046,5.79411 -6.06107,11.02267 -6.78017,11.61948 l -1.30816,1.08443 -0.11257,-2.79443 c -0.26919,-6.7146 2.81024,-14.54147 8.40751,-21.3722 3.52674,-4.30393 4.22255,-5.82142 2.16316,-4.71962 -0.13063,0.0699 -0.20915,0.0953 -0.23512,0.0812 l -0.002,-0.002 -0.002,-0.002 v -0.002 l -0.002,-0.002 h -0.002 v -0.002 c -0.0356,-0.10855 0.69703,-0.82623 1.92945,-1.85962 l 2.90559,-2.43534 -0.13966,-6.07763 -0.13964,-6.07622 -4.17099,-8.18807 c -0.68592,-1.3466 -1.36866,-2.61103 -2.03633,-3.78054 h -22.535 c -1.25991,1.68119 -2.39387,3.5153 -3.05664,5.10151 -0.80143,1.91807 -1.45778,6.40093 -1.45778,9.96221 v 6.47522 l 3.45849,7.21764 c 1.90209,3.96903 4.04941,10.08523 4.77233,13.59168 l 1.31528,6.37546 -0.77377,11.18628 c -0.83764,12.12033 -2.87399,21.62319 -7.6936,35.90154 -3.85037,11.40695 -13.82891,30.89542 -14.95398,29.20544 -2.35008,-3.53007 -6.7403,-15.64686 -7.6423,-21.09147 l -1.16993,-7.05662 1.66868,-10.45383 c 0.91736,-5.74949 1.85222,-11.65719 2.07765,-13.12855 l 0.41041,-2.67473 -1.19273,-0.003 -1.1913,-0.002 -0.0769,-8.02419 -0.0756,-8.0242 -2.90701,-4.86354 c -3.4139,-5.71359 -9.80823,-10.36786 -14.79865,-10.77017 -9.73603,-0.78488 -18.62195,-3.62634 -18.62195,-5.95508 0,-0.6996 -0.46365,-1.27111 -1.03028,-1.27111 -0.56662,0 -0.77808,-0.40823 -0.47025,-0.90631 0.30781,-0.49807 0.11484,-1.18013 -0.42892,-1.5162 -0.54378,-0.33607 -0.98896,-0.11605 -0.98896,0.48878 0,0.63389 -0.65006,0.44861 -1.53473,-0.43606 -0.84771,-0.84769 -2.04888,-1.20434 -2.68328,-0.798 -0.6317,0.40462 -2.08766,1.36126 -3.23476,2.1261 l -2.08478,1.39081 3.83184,2.77591 c 2.1079,1.52696 4.27335,3.93635 4.81224,5.35374 l 0.9804,2.5764 -2.20733,4.93052 -2.20875,4.92908 -0.0242,8.75522 -0.0242,8.75522 2.64623,5.35089 c 2.60609,5.26989 5.95135,9.16701 16.46877,19.18482 2.93311,2.79379 5.95728,6.2954 6.72031,7.78195 0.76304,1.48654 3.16177,5.32979 5.32951,8.54004 2.16774,3.21025 4.76101,7.80674 5.76413,10.21442 1.00313,2.40769 3.28462,6.57189 5.06874,9.25398 l 3.24331,4.87636 1.00036,10.5607 1.00035,10.5607 -1.04167,7.61095 c -1.92523,14.06106 -5.23602,23.81655 -10.43245,30.74302 -3.53527,4.71226 -4.56014,4.60679 -9.25826,-0.94619 -5.55947,-6.57108 -5.4668,-6.38751 -7.03524,-13.88382 l -1.34663,-6.43531 1.48628,-8.41607 c 0.90167,-5.10603 1.30795,-11.47812 1.03314,-16.19945 l -0.45317,-7.78193 -2.11185,-4.60989 c -3.7318,-8.14463 -11.86757,-13.95473 -21.34512,-15.24327 l -4.23654,-0.5757 -1.83682,-4.86354 c -1.01062,-2.6752 -2.53478,-5.37803 -3.38582,-6.00496 -2.19309,-1.6156 -5.49206,-8.07716 -4.90486,-9.60737 l 0.49306,-1.28535 2.89561,1.09297 2.8956,1.09298 1.60455,-1.33096 c 0.88265,-0.73253 1.39607,-2.12853 1.14143,-3.10223 -0.25463,-0.97369 -0.066,-1.77128 0.41896,-1.77128 0.77536,0 1.27918,2.89545 1.14284,6.56641 -0.0574,1.54508 1.91138,1.57274 3.43569,0.0484 1.78673,-1.78673 1.39072,-2.92559 -0.77806,-2.23725 -2.28784,0.72611 -2.57263,-0.69924 -0.48592,-2.43106 1.87827,-1.55884 1.85409,-2.6945 -0.0641,-3.09083 l -1.5219,-0.31493 2.00925,-2.14747 c 2.35059,-2.51376 2.63433,-4.35432 0.54863,-3.55396 -0.80255,0.30797 -1.4592,0.0605 -1.4592,-0.54863 0,-0.60907 0.65665,-1.35928 1.4592,-1.66725 1.94502,-0.74638 1.86544,-2.29711 -0.11827,-2.29711 h -1.57891 l 1.27253,-1.5333 1.27253,-1.5333 -1.19986,-0.74101 -1.19842,-0.741 1.5048,-1.24973 c 2.12103,-1.76028 1.87098,-3.27915 -0.44033,-2.67473 l -1.94513,0.50873 v -1.29818 c 0,-0.71426 0.65664,-1.95624 1.45921,-2.75881 2.01283,-2.01282 1.82471,-2.89317 -0.48735,-2.28856 -2.2985,0.60107 -2.5429,-0.52013 -0.48593,-2.22727 2.02983,-1.68463 1.8209,-2.91841 -0.49447,-2.91841 h -1.95368 l 1.22407,-1.97505 1.22408,-1.97506 -1.4592,-0.9291 -1.4592,-0.92769 1.21553,-0.0157 c 0.6688,-0.008 1.21694,-0.71767 1.21694,-1.57748 v -1.56323 l -1.4592,0.56003 -1.45921,0.56002 v -1.79692 c 0,-0.98778 0.65665,-2.34069 1.45921,-3.00676 2.25205,-1.86903 1.72973,-3.02369 -1.05165,-2.3256 l -2.51086,0.62985 0.67545,-4.50159 0.67545,-4.50301 h -1.60312 -1.60456 l 1.04168,-1.94513 1.04026,-1.94656 h -1.17279 c -0.6455,0 -1.97414,0.72479 -2.9526,1.61026 l -1.77983,1.61025 v -2.03917 c 0,-1.12144 -0.43682,-2.30986 -0.97186,-2.64054 -0.53504,-0.33067 -0.97327,-1.64395 -0.97327,-2.91841 0,-1.27444 -0.43823,-2.58773 -0.97327,-2.91841 -1.47865,-0.91385 -1.17855,-5.34946 0.36194,-5.34946 0.80923,0 1.58505,1.56098 1.96935,3.96436 l 0.63413,3.96437 1.19273,-0.56004 c 0.65602,-0.3075 1.95928,-0.82826 2.89561,-1.15852 0.93631,-0.33027 1.70145,-0.95135 1.70145,-1.37941 0,-1.27887 -2.31141,-1.71255 -4.13394,-0.77519 -2.10823,1.0843 -2.28195,-0.41881 -0.24367,-2.11043 1.93702,-1.60758 1.85038,-2.91841 -0.1938,-2.91841 h -1.65442 l 1.16707,-1.16708 c 1.70611,-1.70611 1.42618,-3.68497 -0.53438,-3.77342 -1.01701,-0.0459 -1.21235,-0.27544 -0.48592,-0.56856 1.78793,-0.72145 1.48074,-3.24616 -0.39472,-3.24616 h -1.61026 l 1.61026,-1.77983 c 0.88547,-0.97846 1.61025,-2.53963 1.61025,-3.46988 v -1.69149 l -1.94514,0.61845 c -2.35488,0.74742 -2.49384,-0.21573 -0.36906,-2.56358 1.77542,-1.96181 1.09727,-5.28563 -0.84076,-4.12111 l -1.22265,0.73388 1.3509,-1.66441 c 0.0573,-0.0706 0.11428,-0.15422 0.171,-0.25079 h -3.47131 c -0.10772,0.33866 -0.099,0.62772 0.0513,0.77805 0.28408,0.28407 0.69561,2.98001 0.91485,5.99072 l 0.39901,5.47486 h -1.0374 c -0.57034,0 -0.80852,-0.87648 -0.52868,-1.94656 0.27983,-1.07008 0.1116,-1.94513 -0.37335,-1.94513 -0.48494,0 -0.88065,-0.60388 -0.88065,-1.34092 0,-0.73705 -0.66288,-1.88919 -1.47203,-2.56074 l -1.47061,-1.22123 1.10438,-1.32953 c 0.60715,-0.73156 0.72187,-1.33703 0.25508,-1.3452 -0.34183,-0.006 -0.28669,-0.23348 0.0827,-0.55432 h -72.67783 c -0.74764,4.94645 -1.13924,9.55575 -0.58996,9.89522 1.12208,0.69348 1.05955,5.96012 -0.1197,10.07193 -1.05985,3.69545 -0.39996,5.36433 1.0773,2.7246 0.5215,-0.93186 1.41818,-1.69291 1.99216,-1.69291 h 1.0431 l -0.98468,1.21553 c -0.54179,0.66881 -0.91446,2.31041 -0.82792,3.64802 0.0865,1.3376 -0.42525,2.88187 -1.13716,3.43283 l -1.2939,1.00177 1.18703,2.88991 c 0.65301,1.58922 1.11667,3.21823 1.03028,3.61951 -0.0864,0.40128 0.28006,0.7296 0.8151,0.7296 0.53505,0 0.97327,0.46366 0.97327,1.03028 0,0.56662 -0.54673,0.70106 -1.21553,0.29925 l -1.21694,-0.73103 1.2084,1.49341 c 0.66416,0.82074 0.91015,1.7888 0.5472,2.15175 -1.14131,1.14131 -0.99676,4.49858 0.23797,5.52332 l 1.18417,0.98324 0.57001,-1.48342 c 1.13328,-2.95327 2.3715,-1.39081 2.10045,2.65051 -0.4105,6.12081 1.54743,18.60393 3.05949,19.50402 l 1.30673,0.77805 v 5.24401 c 0,2.95498 0.49734,5.55165 1.13858,5.94797 l 1.13858,0.70395 -0.62131,-1.6188 c -0.34165,-0.89033 -0.24922,-1.6188 0.20663,-1.6188 2.16569,0 2.69202,9.42324 0.67972,12.17523 l -1.3509,1.84538 1.55041,2.47522 c 0.85271,1.36081 2.77443,3.91116 4.26931,5.66867 l 2.71747,3.19628 v 3.0039 3.00249 l 1.30104,-1.07873 1.30102,-1.08015 1.19416,2.23012 c 0.65662,1.22691 1.11408,2.64389 1.01602,3.14926 -0.0981,0.50539 -0.12745,1.73845 -0.0641,2.74029 l 0.11543,1.82258 1.50053,-1.24546 1.50052,-1.24545 1.12575,1.12575 c 0.61938,0.61938 0.76637,1.12718 0.32633,1.12718 -0.44005,0 -0.25424,0.65664 0.41183,1.45921 2.01058,2.42261 2.9184,1.66562 2.9184,-2.43249 0,-3.74054 -1.24938,-5.20768 -2.27716,-2.67473 l -0.49304,1.21553 -1.06021,-1.4592 c -0.58273,-0.80256 -0.88309,-2.19559 -0.66832,-3.09511 0.21476,-0.89953 -0.33081,-2.43122 -1.21125,-3.40433 -2.21729,-2.45066 -4.01851,-6.75294 -4.01851,-9.5974 0,-1.31243 -0.43824,-2.38688 -0.97328,-2.38688 -0.53504,0 -0.97186,0.43823 -0.97186,0.97328 2e-5,0.53503 -0.52645,0.97327 -1.1685,0.97327 h -1.16708 l 1.16708,-1.1685 c 1.38984,-1.38984 1.57845,-8.56 0.22516,-8.56 -0.51825,0 -0.68988,-0.65664 -0.3819,-1.4592 0.30797,-0.80256 1.15674,-1.45921 1.88527,-1.45921 0.77773,0 1.09258,0.60243 0.7638,1.45921 l -0.56002,1.4592 h 2.05058 c 2.3638,0 2.74153,1.47147 0.58995,2.29711 -2.48707,0.95438 -1.6061,2.56643 1.40221,2.56643 3.81226,0 4.66314,1.66236 1.57177,3.07089 -3.3573,1.52968 -3.13681,2.76592 0.49448,2.76592 1.64029,0 3.83005,0.45361 4.86496,1.00748 2.23294,1.19503 2.5518,3.34878 0.37192,2.51228 -0.86571,-0.3322 -1.25709,-0.16811 -0.91627,0.38333 0.32689,0.5289 0.13057,0.96187 -0.43605,0.96187 -0.56662,0 -1.03028,0.67516 -1.03028,1.50196 v 1.50338 l 3.16208,-0.55005 c 1.73889,-0.3031 3.81872,-0.0712 4.62128,0.51585 l 1.4592,1.06733 -1.21694,0.49305 c -2.40185,0.97458 -1.14993,2.27715 2.1888,2.27715 3.64144,0 4.29375,0.97016 1.95654,2.90986 -2.18272,1.81149 -0.84526,2.89187 2.42107,1.95511 2.99044,-0.85765 5.05232,0.31844 2.3655,1.34947 -0.8334,0.31981 -1.24162,1.02438 -0.90772,1.56466 l 0.60705,0.98183 1.82259,-0.97613 c 2.93629,-1.57146 4.86781,-1.1601 4.86781,1.03597 v 2.01211 l 1.95225,-0.61988 c 1.07366,-0.34076 4.45095,-0.10117 7.5055,0.53295 l 5.55466,1.15283 3.21481,3.21623 3.21622,3.21481 -1.67437,3.51121 c -0.92083,1.93098 -2.57048,4.74625 -2.97499,7.5879 -0.50798,3.56858 -0.56666,8.87884 0.36072,12.76362 0.92737,3.88478 3.86356,14.09757 18.73249,23.68964 8.38597,5.40986 16.75889,13.57754 24.84351,24.23788 2.37777,3.13533 5.81046,6.86494 7.62804,8.28782 l 3.30458,2.58781 2.51228,7.1407 c 3.48363,9.89755 3.79072,11.67768 3.73636,21.68569 -0.0575,10.58388 -2.01341,17.81933 -6.06624,22.43526 -3.96684,4.51799 -5.12922,4.32138 -12.3106,-2.08479 l -6.12752,-5.46773 -3.55824,-6.93122 c -3.51456,-6.84708 -4.11063,-8.46579 -7.79762,-21.20547 -1.03334,-3.57054 -2.59952,-7.2137 -3.48127,-8.09545 -0.88176,-0.88176 -1.60314,-2.22816 -1.60314,-2.99251 0,-0.76435 -0.43824,-1.38937 -0.97327,-1.38937 -0.53505,0 -0.97327,-0.45298 -0.97327,-1.00606 0,-0.88733 -2.3828,-3.32766 -8.02563,-8.21942 -0.93631,-0.81169 -2.13441,-1.4763 -2.66333,-1.4763 -0.52892,0 -1.85358,-0.76514 -2.94263,-1.70145 -1.89416,-1.62852 -12.65543,-4.23718 -17.25395,-4.18239 -1.20385,0.0144 -2.1888,-0.40717 -2.1888,-0.93622 0,-0.52904 0.98495,-1.00544 2.1888,-1.05878 l 2.18881,-0.0969 -2.43248,-0.6726 c -1.46283,-0.4045 -2.55267,-1.50349 -2.73458,-2.75738 l -0.30211,-2.08478 -2.6163,-0.51727 c -1.43878,-0.28458 -4.2579,-0.80034 -6.26431,-1.14571 -2.01505,-0.34685 -3.64801,-1.192 -3.64801,-1.88813 0,-2.92706 -5.82482,-13.92122 -8.39755,-15.85031 l -2.78873,-2.0919 1.4592,-0.97613 c 2.28636,-1.52967 2.94608,-1.21717 4.03704,1.91235 0.55955,1.60513 1.58985,2.91841 2.28998,2.91841 0.77187,0 1.08262,0.72715 0.78945,1.84823 l -0.48308,1.84965 3.00534,0.65978 3.00675,0.6612 v 2.2971 c 0,2.77908 1.06524,3.59462 2.96544,2.27289 l 1.41218,-0.98183 -1.21553,-0.49305 c -0.66881,-0.27138 -1.21554,-1.29225 -1.21554,-2.26718 0,-2.53923 -4.03558,-9.74686 -6.06481,-10.83288 l -1.71854,-0.91912 v 1.12575 1.12576 l -1.48059,-1.22836 c -0.83911,-0.69641 -1.23766,-1.99747 -0.91912,-3.00106 0.30923,-0.97434 0.11538,-2.60549 -0.43036,-3.62521 l -0.9918,-1.85393 -2.36835,0.45173 -2.36836,0.45315 -0.64695,-2.94549 c -0.35587,-1.6202 -1.27528,-3.4679 -2.04346,-4.10543 l -1.3965,-1.15852 -1.45921,1.21124 -1.4592,1.20983 v -1.1001 -1.1001 l -1.92232,1.19985 -1.92091,1.19985 -1.04738,-1.04595 -1.04595,-1.04737 2.4909,-1.63306 2.49233,-1.63306 1.83826,0.98468 1.83826,0.98326 0.5073,-1.32098 c 0.94343,-2.45854 -0.59659,-9.62827 -2.47096,-11.50263 l -1.86248,-1.86248 -1.31813,1.09299 -1.31813,1.0944 -2.02208,-1.26256 c -1.112,-0.69446 -2.02208,-1.55975 -2.02208,-1.92233 0,-0.36258 -0.26518,-1.35104 -0.58995,-2.19736 l -0.58995,-1.539 h 1.56323 c 0.85981,0 1.56322,0.43824 1.56322,0.97328 0,1.40988 3.64837,1.19638 4.16529,-0.24368 l 0.43606,-1.21553 2.07622,2.33701 c 1.14213,1.28572 2.07766,3.14572 2.07766,4.13393 0,0.98822 0.55241,1.79693 1.22836,1.79693 0.67593,0 1.75192,2.20248 2.39115,4.89347 0.63922,2.69099 1.8369,5.56756 2.6619,6.39256 0.82501,0.825 1.50053,1.90574 1.50053,2.40255 0,0.49682 0.65665,0.90346 1.45921,0.90346 1.72594,0 1.79664,-0.46952 0.45173,-2.98254 -0.55387,-1.03491 -1.5868,-1.881 -2.29568,-1.881 h -1.28821 l -0.57143,-5.52759 c -0.34016,-3.29579 -1.37676,-6.61837 -2.56785,-8.22939 -1.09869,-1.48606 -1.99786,-3.41779 -1.99786,-4.29211 0,-0.87432 -0.87505,-1.81777 -1.94513,-2.0976 -1.07008,-0.27984 -1.94513,-1.1152 -1.94513,-1.85536 0,-0.74016 -0.43824,-1.3452 -0.97327,-1.3452 -0.53506,0 -0.97328,0.43823 -0.97328,0.97327 0,1.44484 -2.8517,1.17679 -4.44601,-0.41752 -1.8596,-1.8596 -1.76714,-4.44744 0.1596,-4.44744 0.85265,0 1.77929,-0.87505 2.05913,-1.94513 0.2816,-1.07681 1.32726,-1.94513 2.34128,-1.94513 1.00768,0 1.83255,-0.65664 1.83255,-1.4592 v -1.4592 h -3.89168 c -2.14017,0 -3.89169,-0.46367 -3.89169,-1.03028 0,-0.56663 -0.43681,-0.7596 -0.97186,-0.42893 -0.53503,0.33067 -0.97327,1.03816 -0.97327,1.5732 0,0.53504 0.43824,0.7026 0.97327,0.37193 0.53505,-0.33067 0.97186,0.0807 0.97186,0.91486 0,2.15351 -0.49944,1.94193 -4.43603,-1.88101 l -3.49838,-3.39863 4.45313,-4.26789 c 3.97605,-3.80959 5.8703,-6.4632 3.62093,-5.07302 -0.45819,0.28319 -1.66156,-0.29437 -2.67472,-1.28392 l -1.84253,-1.79978 -3.64802,3.85607 c -2.0064,2.12041 -3.648,4.69332 -3.648,5.71853 v 1.8639 h -1.94514 -1.94513 v -2.00925 c 0,-1.10526 -0.48856,-2.92242 -1.08585,-4.03846 l -1.08585,-2.02921 1.5219,0.58426 1.52334,0.58425 -0.55148,-1.43498 c -0.32181,-0.83862 0.60935,-2.52502 2.23868,-4.05413 l 2.78873,-2.61774 -1.71428,-0.34771 c -0.94287,-0.19161 -1.48265,-0.72375 -1.19985,-1.18132 0.57597,-0.93195 -1.14895,-2.22486 -3.39151,-2.5422 -2.06428,-0.29211 -8.59773,-2.78942 -9.40217,-3.59386 -0.36669,-0.36668 0.49982,-0.66691 1.9266,-0.66691 h 2.59493 v -3.89026 c 0,-2.14016 0.45218,-3.89167 1.00605,-3.89167 h 1.00748 l -1.04168,-1.94514 c -1.15279,-2.15404 -3.41901,-2.70995 -2.62628,-0.6441 0.27484,0.71624 0.19715,2.78008 -0.17243,4.58709 l -0.67117,3.28605 -2.39971,-2.39828 -2.39828,-2.39971 2.18881,-0.31065 c 2.70394,-0.38402 2.74472,-1.15726 0.2052,-3.88312 -1.17785,-1.26427 -3.15446,-2.12896 -4.86496,-2.12896 -3.23106,0 -3.53048,-0.71487 -1.45208,-3.46275 l 1.42928,-1.88814 0.0513,1.94655 0.0527,1.94514 1.79979,-2.34129 1.79978,-2.33985 1.58318,0.60705 c 1.87131,0.71809 4.503,-0.1219 4.503,-1.43783 0,-0.50938 -0.32832,-0.72744 -0.7296,-0.4845 -0.40128,0.24293 -1.29513,-0.16845 -1.98503,-0.91485 -0.68989,-0.74641 -0.88026,-1.35803 -0.42323,-1.35803 0.45705,0 1.55992,-1.52583 2.44959,-3.39151 l 1.61738,-3.39293 -0.57285,-2.85856 -0.57143,-2.85998 -1.35233,0.51869 c -1.62645,0.62414 -1.64082,0.45838 -0.29925,-3.39008 l 1.05308,-3.01957 -1.95938,-2.10189 -1.95795,-2.10187 0.90629,-2.38404 c 1.2287,-3.2317 1.15626,-3.53415 -0.67117,-2.8329 l -1.57605,0.60563 0.60419,-1.96081 c 0.332,-1.07804 0.86517,-2.80512 1.1856,-3.83896 l 0.58283,-1.87958 -2.04203,0.53295 -2.04202,0.53438 v -1.58175 c 0,-0.8702 0.87646,-2.33278 1.94655,-3.24901 1.07008,-0.91624 1.94513,-2.27156 1.94513,-3.01246 v -1.34664 l -1.52333,0.58426 -1.5219,0.58426 0.71677,-2.18311 c 0.39423,-1.20048 0.66897,-2.94024 0.61133,-3.86604 -0.0576,-0.92578 0.32661,-1.94862 0.85358,-2.2743 l 0.95761,-0.59281 -1.16281,-1.40077 -1.1628,-1.4022 1.09012,-2.39116 c 0.59935,-1.31542 0.86177,-2.98325 0.58425,-3.70644 -0.2775,-0.72317 0.18275,-1.88605 1.02315,-2.58352 l 0.7068,-0.58568 z m 281.12611,0 0.79373,0.65836 0.2907,-0.65836 z M 284.92541,358.30203 c -0.18172,7.3e-4 -0.40081,0.0715 -0.63555,0.21661 l -1.02742,0.63555 c 1.17459,0.98115 2.166,0.92934 2.166,-0.30922 0,-0.35415 -0.20016,-0.5444 -0.50303,-0.54294 z m 47.68347,109.76945 -6.20304,0.77378 c -3.76378,0.46956 -7.28739,1.57567 -8.959,2.81153 -1.51538,1.12038 -3.17164,2.03633 -3.68078,2.03633 -0.50915,0 -2.0224,1.30265 -3.36159,2.89418 -4.90908,5.83412 -5.87523,13.9557 -3.11362,22.05335 h 53.0429 v -2.32845 l -1.46633,-4.25649 c -2.24149,-6.50842 -3.61337,-8.90941 -6.54504,-11.4499 -1.47876,-1.28145 -2.68898,-2.97125 -2.68898,-3.75346 v -1.42215 l -1.54898,0.59565 -1.54898,0.59422 -0.4617,-1.7613 c -0.45946,-1.75698 -5.5872,-4.48315 -7.8475,-4.17241 -0.65623,0.0902 -2.18934,-0.46143 -3.40575,-1.22551 z"
         sodipodi:nodetypes="cccccsscccccccsccccccsssscccsscscccsccccccccscccsscccsccccscccccccccccssssccccccssccccssccccssscsssscccscccssscccscccccccssccssscccccscccscccccssccccccccssccccccccscccccccccssccccccccccsscccccccsscccccssccccssscsccccccccccccccccccscccccccsccscccscsssscccsssssscccccccccccccccssssccccccccccssccccsccczzsscccccccccccccsssscccccccccccccccccssssssccccccccccccsccccccsssscccssssccscccccsccccssssscccssccccccccccccccsscccccssccccccccccssssssssccccccccccsssscccccsscccccccccscccccsssssscccssssccccccccsssssccccccscccssccccccccsccssssscccssssscssssccsccscccccsccssssccccccsssscsscccssscccccccsccscccsccccccccccsccccsssscccssssssccsssccsssssssssscccccsssscccsccccccsszsscccsscccssssssssssccscccsscccssccccscccscccccsccccscccccccccccccccsccccsccsscccssssssssccssssssssssscsssssscccscccscccsccccccccsssscssccscccccsscccccccsssscccccccccccccccccsssccccscccccsccccccccccscccsssccccssccccscc" />
      <text
         xml:space="preserve"
         style="font-weight:bold;font-size:98.2264px;font-family:Nunito;-inkscape-font-specification:'Nunito Bold';text-align:start;writing-mode:lr-tb;direction:ltr;text-anchor:start;fill:#ba9f33;fill-opacity:1;stroke:none;stroke-width:2.39427;stroke-linecap:round;stroke-miterlimit:3"
         x="119.97742"
         y="569.60065"
         id="text1"><tspan
           sodipodi:role="line"
           id="tspan1"
           x="119.97742"
           y="569.60065"
           style="font-style:normal;font-variant:normal;font-weight:bold;font-stretch:normal;font-family:Nunito;-inkscape-font-specification:'Nunito Bold';fill:#ba9f33;fill-opacity:1;stroke:none;stroke-width:2.39427">huiro.dev</tspan></text>
    </g>
  </g>
</svg>
